<?xml version="1.0" encoding="utf-8"?>
<!-- Generator: Adobe Illustrator 18.1.1, SVG Export Plug-In . SVG Version: 6.00 Build 0)  -->
<svg version="1.1" id="Laag_1" xmlns="http://www.w3.org/2000/svg" xmlns:xlink="http://www.w3.org/1999/xlink" x="0px" y="0px"
	 viewBox="0 0 448 464" enable-background="new 0 0 448 464" xml:space="preserve">
<g>
	<defs>
		<path id="SVGID_1_" d="M95.4,332.3l54.9-202.7H176l54,202.7h-25.7l-7.4-27.1c-0.8-3-2.6-4.5-5.3-4.5h-57.3c-3,0-4.9,1.5-5.6,4.3
			l-7.4,27.3H95.4z M138.3,270c-0.3,1.3-0.2,2.4,0.3,3.2c0.6,0.8,1.6,1.2,3.2,1.2h42.8c1.3,0,2.2-0.3,2.7-1c0.5-0.7,0.5-1.7,0.2-3
			l-20.9-78.2c-0.6-2.3-1.9-3.4-3.7-3.4c-1.8,0-3.1,1.2-3.7,3.6L138.3,270z"/>
	</defs>
	<use xlink:href="#SVGID_1_"  overflow="visible" fill="#232A34"/>
	<clipPath id="SVGID_2_">
		<use xlink:href="#SVGID_1_"  overflow="visible"/>
	</clipPath>
</g>
<g>
	<defs>
		<path id="SVGID_3_" d="M357.8,129.6l-54.9,202.7h-25.7l-54-202.7h25.7l7.4,27.1c0.8,3,2.5,4.5,5.3,4.5h57.2c3.1,0,4.9-1.4,5.6-4.3
			l7.4-27.3H357.8z M314.9,191.9c0.3-1.3,0.2-2.4-0.3-3.2c-0.5-0.8-1.6-1.2-3.2-1.2h-42.8c-1.3,0-2.2,0.3-2.7,1
			c-0.5,0.7-0.5,1.7-0.2,3l20.9,78.2c0.6,2.3,1.8,3.4,3.7,3.4c1.9,0,3.1-1.2,3.7-3.5L314.9,191.9z"/>
	</defs>
	<use xlink:href="#SVGID_3_"  overflow="visible" fill="#232A34"/>
	<clipPath id="SVGID_4_">
		<use xlink:href="#SVGID_3_"  overflow="visible"/>
	</clipPath>
</g>
<g>
	<defs>
		<path id="SVGID_5_" d="M226.6,444.4c-116.2,0-210.5-94.2-210.5-210.4S110.4,23.5,226.6,23.5c116.2,0,210.4,94.2,210.4,210.4
			S342.8,444.4,226.6,444.4z M226.6,431.1c108.7,0,197.2-88.5,197.2-197.2c0-108.7-88.5-197.2-197.2-197.2
			c-108.8,0-197.3,88.5-197.3,197.2C29.3,342.7,117.8,431.1,226.6,431.1"/>
	</defs>
	<use xlink:href="#SVGID_5_"  overflow="visible" fill="#232A34"/>
	<clipPath id="SVGID_6_">
		<use xlink:href="#SVGID_5_"  overflow="visible"/>
	</clipPath>
</g>
</svg>
