<?xml version="1.0" encoding="utf-8"?>
<!-- Generator: Adobe Illustrator 16.0.0, SVG Export Plug-In . SVG Version: 6.00 Build 0)  -->
<!DOCTYPE svg PUBLIC "-//W3C//DTD SVG 1.1//EN" "http://www.w3.org/Graphics/SVG/1.1/DTD/svg11.dtd">
<svg version="1.1" id="Laag_1" xmlns="http://www.w3.org/2000/svg" xmlns:xlink="http://www.w3.org/1999/xlink" x="0px" y="0px"
	 width="595.281px" height="841.891px" viewBox="0 0 595.281 841.891" enable-background="new 0 0 595.281 841.891"
	 xml:space="preserve">
<path fill="#1D1D1B" d="M160.441,534.287l54.9-202.703h25.684l54.009,202.703h-25.683l-7.425-27.103
	c-0.768-2.98-2.556-4.493-5.31-4.493h-57.264c-3.027,0-4.863,1.466-5.556,4.342l-7.398,27.254H160.441z M203.252,472.043
	c-0.345,1.286-0.227,2.355,0.321,3.15c0.569,0.793,1.642,1.164,3.178,1.164h42.843c1.288,0,2.18-0.349,2.673-1.042
	c0.451-0.697,0.547-1.713,0.204-3.028l-20.901-78.184c-0.618-2.282-1.862-3.425-3.72-3.425c-1.837,0-3.083,1.19-3.673,3.574
	L203.252,472.043z"/>
<path fill="#1D1D1B" d="M396.8,331.633l-7.396,27.251c-0.693,2.905-2.531,4.345-5.584,4.345h-57.236
	c-2.781,0-4.541-1.487-5.311-4.468l-7.426-27.128h-25.684l54.008,202.708h25.686l54.9-202.708H396.8z M379.947,393.905l-20.9,77.788
	c-0.619,2.383-1.865,3.549-3.723,3.549c-1.861,0-3.08-1.145-3.697-3.426l-20.9-78.181c-0.344-1.32-0.27-2.308,0.197-3.032
	c0.475-0.693,1.369-1.042,2.658-1.042h42.844c1.557,0,2.629,0.371,3.172,1.164C380.171,391.521,380.291,392.562,379.947,393.905z"/>
<path fill="#1D1D1B" d="M291.589,646.354c-116.233,0-210.476-94.194-210.476-210.428c0-116.234,94.243-210.449,210.476-210.449
	c116.178,0,210.422,94.216,210.422,210.449C502.011,552.159,407.767,646.354,291.589,646.354z M291.589,633.147
	c108.737,0,197.215-88.483,197.215-197.222c0-108.733-88.479-197.242-197.215-197.242c-108.787,0-197.269,88.509-197.269,197.242
	C94.32,544.664,182.802,633.147,291.589,633.147"/>
</svg>
