<?xml version="1.0" encoding="utf-8"?>
<!-- Generator: Adobe Illustrator 18.1.1, SVG Export Plug-In . SVG Version: 6.00 Build 0)  -->
<svg version="1.1" id="Laag_1" xmlns="http://www.w3.org/2000/svg" xmlns:xlink="http://www.w3.org/1999/xlink" x="0px" y="0px"
	 viewBox="0 0 448 464" enable-background="new 0 0 448 464" xml:space="preserve">
<path opacity="0.5" fill="#69655D" d="M226.6,15.5c-58.4,0-113.2,22.7-154.5,64c-41.3,41.3-64,96.1-64,154.5
	c0,58.3,22.7,113.2,64,154.5c41.3,41.3,96.1,64,154.5,64c120.4,0,218.4-98,218.4-218.4C445,113.5,347,15.5,226.6,15.5z M226.6,423.1
	c-104.4,0-189.3-84.9-189.3-189.2c0-104.3,84.9-189.2,189.3-189.2c104.3,0,189.2,84.9,189.2,189.2
	C415.8,338.3,330.9,423.1,226.6,423.1z"/>
<rect x="146.6" y="116.8" opacity="0.5" fill="#69655D" width="35" height="235.5"/>
<rect x="274.5" y="116.8" opacity="0.5" fill="#69655D" width="35" height="235.5"/>
</svg>
